<svg xmlns="http://www.w3.org/2000/svg" viewBox="0 0 435.29 435.29"><defs><style>.cls-1{fill:#12509f;}.cls-2{fill:#fff;}</style></defs><g id="Laag_4" data-name="Laag 4"><circle class="cls-1" cx="217.64" cy="217.64" r="182.32"/><path class="cls-2" d="M83.1,202.91c0,62.76,60.64,113.71,134.75,113.71a150.74,150.74,0,0,0,24-1.69L293.66,344c6.68,2.85,13,3.32,19.36-2.11A16.85,16.85,0,0,0,317.66,323l-13-33.28c29.89-21.56,47.57-53.07,47.57-86.76,0-62.76-60.64-113.72-134.75-113.72S82.67,140.15,83.1,202.91Zm16.42,0c0-53.49,52.64-96.86,117.92-96.86s117.94,43.32,117.94,96.86c0,33.27-20.22,62.76-51.39,80l17.7,46.32-56.87-32a147.07,147.07,0,0,1-27.38,2.54C152.16,299.79,99.52,256.4,99.52,202.91Z"/></g></svg>