<svg id="Laag_1" data-name="Laag 1" xmlns="http://www.w3.org/2000/svg" viewBox="0 0 150 150"><defs><style>.cls-1{fill:#010101;}</style></defs><path class="cls-1" d="M.11,66.8c0,34.93,33.75,63.29,75,63.29a84.55,84.55,0,0,0,13.36-.94l28.83,16.18c3.72,1.59,7.26,1.85,10.78-1.17a9.39,9.39,0,0,0,2.58-10.55l-7.26-18.52c16.64-12,26.48-29.54,26.48-48.29,0-34.93-33.75-63.29-75-63.29S-.13,31.87.11,66.8Zm9.14,0c0-29.77,29.3-53.91,65.63-53.91S140.52,37,140.52,66.8c0,18.52-11.25,34.93-28.6,44.54l9.85,25.78L90.12,119.31a81.67,81.67,0,0,1-15.24,1.41C38.55,120.72,9.25,96.57,9.25,66.8Z"/></svg>