<svg xmlns="http://www.w3.org/2000/svg" viewBox="0 0 477.96 552.44"><defs><style>.cls-1{fill:#12509f;}.cls-2{fill:none;stroke:#12509f;stroke-linecap:round;stroke-linejoin:round;stroke-width:5px;}</style></defs><g id="Laag_3" data-name="Laag 3"><path class="cls-1" d="M377.29,130.36a8,8,0,0,1,8,8V414.08a8,8,0,0,1-8,8H101.56a8,8,0,0,1-8-8V138.35a8,8,0,0,1,8-8H377.29m0-5H101.56a13,13,0,0,0-13,13V414.08a13,13,0,0,0,13,13H377.29a13,13,0,0,0,13-13V138.35a13,13,0,0,0-13-13Z"/><path class="cls-1" d="M191.87,209.21A17.78,17.78,0,1,1,174.09,227a17.78,17.78,0,0,1,17.78-17.78m0-5A22.78,22.78,0,1,0,214.65,227a22.81,22.81,0,0,0-22.78-22.78Z"/><polyline class="cls-2" points="91.4 360.9 180.94 306.19 214.41 339.36 331.77 263.03 386.55 317.31"/></g></svg>