<svg xmlns="http://www.w3.org/2000/svg" viewBox="0 0 329.31 327.03"><defs><style>.cls-1{fill:#12509f;}.cls-2{fill:none;stroke:#12509f;stroke-linecap:round;stroke-linejoin:round;stroke-width:10px;}</style></defs><g id="Laag_4" data-name="Laag 4"><path class="cls-1" d="M303.54,17.09a8,8,0,0,1,8,8V300.81a8,8,0,0,1-8,8H27.8a8,8,0,0,1-8-8V25.08a8,8,0,0,1,8-8H303.54m0-10H27.8a18,18,0,0,0-18,18V300.81a18,18,0,0,0,18,18H303.54a18,18,0,0,0,18-18V25.08a18,18,0,0,0-18-18Z"/><path class="cls-1" d="M118.12,95.94a17.78,17.78,0,1,1-17.79,17.78,17.78,17.78,0,0,1,17.79-17.78m0-10a27.78,27.78,0,1,0,27.78,27.78,27.82,27.82,0,0,0-27.78-27.78Z"/><polyline class="cls-2" points="17.65 247.63 107.18 192.92 140.66 226.09 258.01 149.76 312.8 204.04"/></g></svg>