<svg id="Laag_1" data-name="Laag 1" xmlns="http://www.w3.org/2000/svg" viewBox="0 0 1188.55 288.1"><defs><style>.cls-1{fill:#ccc;}.cls-2{fill:#004ea8;}</style></defs><path class="cls-1" d="M57.79,206.1q-5.52,0-8.49-2.86c-2-1.92-3-4.78-3-8.61V92.09c0-3.68,1-6.5,3-8.49s4.81-3,8.49-3,6.68.95,8.6,2.86,2.87,4.79,2.87,8.61V194.63q0,5.52-2.87,8.49C64.47,205.11,61.61,206.1,57.79,206.1Zm-.23-78.45A45.76,45.76,0,0,1,64.32,103,49.62,49.62,0,0,1,82.56,85.66a50.81,50.81,0,0,1,25.24-6.42q13.76,0,20.53,4.47t5.16,10.67a8.79,8.79,0,0,1-2.64,4.93,9,9,0,0,1-4.47,2.18,13.51,13.51,0,0,1-5.51-.23q-14.69-3-26.38-.46T76,110.21q-6.76,6.89-6.76,17.44Z"/><path class="cls-1" d="M207.59,207q-19,0-33.84-8.14a59.62,59.62,0,0,1-23.17-22.48q-8.37-14.34-8.37-32.92,0-18.81,7.91-33.15A57.91,57.91,0,0,1,172,87.84q14-8.15,32.12-8.14,17.9,0,30.74,7.91a51.64,51.64,0,0,1,19.62,21.79q6.76,13.89,6.76,32a9.59,9.59,0,0,1-3,7.23,10.48,10.48,0,0,1-7.57,2.86H158.27V133.15H250l-9.4,6.42A49.34,49.34,0,0,0,236,119a34.91,34.91,0,0,0-12.39-14.34q-8-5.26-19.5-5.27-13.08,0-22.37,5.73a37,37,0,0,0-14.11,15.72,51.36,51.36,0,0,0-4.81,22.6A43.94,43.94,0,0,0,168.59,166a41.83,41.83,0,0,0,15.83,15.6,46.1,46.1,0,0,0,23.17,5.73,43.51,43.51,0,0,0,14.57-2.64,45.11,45.11,0,0,0,12-6.07,13.08,13.08,0,0,1,7.46-2.65,10.09,10.09,0,0,1,7,2.41c2.6,2.3,4,4.82,4.13,7.58s-1.07,5.12-3.67,7.11a63.6,63.6,0,0,1-19.39,10.09A69.38,69.38,0,0,1,207.59,207Z"/><path class="cls-2" d="M302.8,259.79a11.37,11.37,0,0,1-11.7-11.7V143.48a66.25,66.25,0,0,1,8.48-32.58,61.36,61.36,0,0,1,22.49-22.83,62.13,62.13,0,0,1,32.12-8.37q18.1,0,32.34,8.37a62.33,62.33,0,0,1,22.6,22.83,63.81,63.81,0,0,1,8.37,32.58q0,18.12-7.68,32.45a59.56,59.56,0,0,1-21,22.72,58.06,58.06,0,0,1-54.95,2.75,59.05,59.05,0,0,1-19.38-15.25v61.94a11.58,11.58,0,0,1-3.22,8.37A11.24,11.24,0,0,1,302.8,259.79Zm51.39-73.42a39.14,39.14,0,0,0,20.87-5.62,40.73,40.73,0,0,0,14.57-15.37,44.53,44.53,0,0,0,5.39-21.9,45,45,0,0,0-5.39-22.14A40.8,40.8,0,0,0,375.06,106a41.37,41.37,0,0,0-41.64,0,39.69,39.69,0,0,0-14.57,15.37,45.82,45.82,0,0,0-5.27,22.14,45.35,45.35,0,0,0,5.27,21.9,39.46,39.46,0,0,0,35.34,21Z"/><path class="cls-2" d="M482.19,206.1a30.24,30.24,0,0,1-17.89-5.5,36.5,36.5,0,0,1-12.16-15,52,52,0,0,1-4.36-21.91V38.4a11.47,11.47,0,1,1,22.94,0V163.66q0,8.49,3.22,14c2.13,3.67,4.89,5.5,8.25,5.5h5.74a9.55,9.55,0,0,1,7.45,3.21,11.92,11.92,0,0,1,2.87,8.26,9.82,9.82,0,0,1-4.36,8.26q-4.35,3.21-11.24,3.21Z"/><path class="cls-2" d="M566.62,207a55.27,55.27,0,0,1-30.06-8.37,59.41,59.41,0,0,1-21-22.72q-7.7-14.33-7.68-32.45a63.81,63.81,0,0,1,8.37-32.58A61.94,61.94,0,0,1,539,88.07a63.25,63.25,0,0,1,86.95,22.83,63.81,63.81,0,0,1,8.37,32.58h-8.94q0,18.12-7.69,32.45a59.49,59.49,0,0,1-21,22.72A55.26,55.26,0,0,1,566.62,207Zm4.58-20.65a39.15,39.15,0,0,0,20.88-5.62,39.83,39.83,0,0,0,14.45-15.37,45.24,45.24,0,0,0,5.28-21.9,45.71,45.71,0,0,0-5.28-22.14A39.9,39.9,0,0,0,592.08,106a41.37,41.37,0,0,0-41.64,0,40.48,40.48,0,0,0-14.68,15.37,44.89,44.89,0,0,0-5.39,22.14,44.43,44.43,0,0,0,5.39,21.9,40.4,40.4,0,0,0,14.68,15.37A39.3,39.3,0,0,0,571.2,186.37Zm51.39,20a11.37,11.37,0,0,1-11.7-11.7v-35.1l4.36-24.32,19,8.27v51.15a11.35,11.35,0,0,1-11.7,11.7Z"/><path class="cls-2" d="M714.81,207a86.7,86.7,0,0,1-29.7-4.93q-13.67-4.93-21.23-12.5a10,10,0,0,1-2.86-8.37,11,11,0,0,1,4.47-7.69q4.59-3.67,9.06-3.1a12.47,12.47,0,0,1,7.69,4q3.9,4.35,12.5,8.14a47.14,47.14,0,0,0,19.16,3.78q13.29,0,20.3-4.35t7.23-11.24q.23-6.89-6.54-11.93t-24.66-8.26q-23.18-4.59-33.61-13.77t-10.44-22.48q0-11.7,6.88-19.38a41.64,41.64,0,0,1,17.67-11.48,67.41,67.41,0,0,1,22.48-3.78q15.13,0,26.84,4.82a45.83,45.83,0,0,1,18.58,13.3,10.61,10.61,0,0,1,3,7.69,8.89,8.89,0,0,1-3.9,6.77,11.25,11.25,0,0,1-8.71,1.6,16.41,16.41,0,0,1-8.49-4.13,31.39,31.39,0,0,0-12.39-7.57,51.83,51.83,0,0,0-15.37-2.07q-10.1,0-17.09,3.45t-7,10.09a13.22,13.22,0,0,0,2.18,7.45q2.17,3.34,8.6,6t18.82,5.16q17.21,3.45,27.18,8.72t14.34,12.27a30,30,0,0,1,4.36,16.18,33.77,33.77,0,0,1-5.62,19Q752.9,196.93,742,202T714.81,207Z"/><path class="cls-2" d="M788.46,104.93a11,11,0,0,1-7.8-2.75,9,9,0,0,1-3-6.88,9.5,9.5,0,0,1,3-7.34,11,11,0,0,1,7.8-2.76h53a11,11,0,0,1,7.8,2.76,9.49,9.49,0,0,1,3,7.34,9,9,0,0,1-3,6.88,11,11,0,0,1-7.8,2.75ZM839.39,206.1a37.65,37.65,0,0,1-20.65-5.84,41.05,41.05,0,0,1-14.45-15.95A48.25,48.25,0,0,1,799,161.6V52.17a11.47,11.47,0,1,1,22.94,0V161.6q0,9.18,5,15.37t12.39,6.19h7.8a9.05,9.05,0,0,1,7,3.21,12,12,0,0,1,2.87,8.26,10.34,10.34,0,0,1-3.78,8.26,14.58,14.58,0,0,1-9.75,3.21Z"/><path class="cls-2" d="M899.72,60.2a15.28,15.28,0,0,1-15.14-15.14,15.14,15.14,0,1,1,25.81,10.66A14.56,14.56,0,0,1,899.72,60.2Zm0,145.9A11.37,11.37,0,0,1,888,194.4V92.32a11.25,11.25,0,0,1,3.33-8.49,11.65,11.65,0,0,1,20.07,8.49V194.4a11.58,11.58,0,0,1-3.21,8.38A11.3,11.3,0,0,1,899.72,206.1Z"/><path class="cls-2" d="M947.43,104.93a11,11,0,0,1-7.8-2.75,9,9,0,0,1-3-6.88,9.49,9.49,0,0,1,3-7.34,11,11,0,0,1,7.8-2.76h56.67a11,11,0,0,1,7.8,2.76,9.53,9.53,0,0,1,3,7.34,9,9,0,0,1-3,6.88,11,11,0,0,1-7.8,2.75ZM968.54,206.1a11.36,11.36,0,0,1-11.24-11.7V81.3q0-16.51,6.54-28.67A47.21,47.21,0,0,1,982.07,33.7q11.7-6.76,27.08-6.77a12.11,12.11,0,0,1,8.37,3,10.14,10.14,0,0,1,0,15,11.79,11.79,0,0,1-8.37,3.1,28.18,28.18,0,0,0-14.92,3.9,26.64,26.64,0,0,0-10,10.78A35.07,35.07,0,0,0,980.7,79V194.4a11.46,11.46,0,0,1-3.21,8.49Q974.27,206.1,968.54,206.1Z"/><path class="cls-2" d="M1088.75,201.06a10.4,10.4,0,0,1-8.14.34,11.75,11.75,0,0,1-6.08-5.85L1022,95.76a9.33,9.33,0,0,1-.57-8.38,10.9,10.9,0,0,1,6.08-5.85,10.77,10.77,0,0,1,8.26-.34,11,11,0,0,1,6,5.85L1092,186.83a13.67,13.67,0,0,1,1.72,8.38C1093.3,197.89,1091.65,199.84,1088.75,201.06Zm-27.07,60.1a14.39,14.39,0,0,1-5.51-1.37q-10.1-4.59-5.5-14.45l70-158.07q4.59-9.63,14.45-5.51,10.32,4.36,5.74,14.46l-70.2,157.83Q1067.87,261.16,1061.68,261.16Z"/></svg>