<svg xmlns="http://www.w3.org/2000/svg" viewBox="0 0 328.17 327.03"><defs><style>.cls-1,.cls-2,.cls-3,.cls-4{fill:none;stroke:#12509f;stroke-linecap:round;stroke-linejoin:round;stroke-width:10px;}.cls-2{stroke-dasharray:12.37 12.37;}.cls-3{stroke-dasharray:12.54 12.54;}.cls-4{stroke-dasharray:10.56 10.56;}</style></defs><g id="Laag_4" data-name="Laag 4"><rect class="cls-1" x="18.23" y="62.92" width="245.89" height="245.89"/><polyline class="cls-1" points="64.06 17.1 309.94 17.1 309.94 262.98"/><line class="cls-1" x1="264.12" y1="62.92" x2="309.94" y2="17.1"/><polyline class="cls-1" points="18.23 62.92 64.06 17.1 64.06 62.92"/><polyline class="cls-1" points="264.12 262.98 309.94 262.98 264.12 308.81"/><line class="cls-1" x1="261.56" y1="262.98" x2="255.56" y2="262.98"/><line class="cls-2" x1="243.2" y1="262.98" x2="76.24" y2="262.98"/><polyline class="cls-1" points="70.06 262.98 64.06 262.98 64.06 256.98"/><line class="cls-3" x1="64.06" y1="244.45" x2="64.06" y2="75.19"/><line class="cls-1" x1="64.06" y1="68.92" x2="64.06" y2="62.92"/><line class="cls-1" x1="18.23" y1="308.81" x2="22.47" y2="304.56"/><line class="cls-4" x1="29.94" y1="297.1" x2="56.08" y2="270.96"/><line class="cls-1" x1="59.81" y1="267.23" x2="64.06" y2="262.98"/></g></svg>