<svg xmlns="http://www.w3.org/2000/svg" viewBox="0 0 477.96 552.44"><defs><style>.cls-1,.cls-2,.cls-3,.cls-4{fill:none;stroke:#12509f;stroke-linecap:round;stroke-linejoin:round;stroke-width:5px;}.cls-2{stroke-dasharray:12.37 12.37;}.cls-3{stroke-dasharray:12.54 12.54;}.cls-4{stroke-dasharray:10.56 10.56;}</style></defs><g id="Laag_3" data-name="Laag 3"><rect class="cls-1" x="93.12" y="176.19" width="245.89" height="245.89"/><polyline class="cls-1" points="138.95 130.36 384.83 130.36 384.83 376.25"/><line class="cls-1" x1="339.01" y1="176.19" x2="384.83" y2="130.36"/><polyline class="cls-1" points="93.12 176.19 138.95 130.36 138.95 176.19"/><polyline class="cls-1" points="339.01 376.25 384.83 376.25 339.01 422.07"/><line class="cls-1" x1="336.45" y1="376.25" x2="330.45" y2="376.25"/><line class="cls-2" x1="318.09" y1="376.25" x2="151.13" y2="376.25"/><polyline class="cls-1" points="144.95 376.25 138.95 376.25 138.95 370.25"/><line class="cls-3" x1="138.95" y1="357.71" x2="138.95" y2="188.46"/><line class="cls-1" x1="138.95" y1="182.19" x2="138.95" y2="176.19"/><line class="cls-1" x1="93.12" y1="422.07" x2="97.37" y2="417.83"/><line class="cls-4" x1="104.83" y1="410.36" x2="130.97" y2="384.22"/><line class="cls-1" x1="134.71" y1="380.49" x2="138.95" y2="376.25"/></g></svg>